# This file uses centimeters as units for non-parametric coordinates.

mtllib streetlamp.mtl
g default
v -9.212660 -0.003744 0.087976
v -9.036708 -0.003744 0.087976
v -9.202293 5.641586 0.087976
v -9.050775 5.552134 0.087976
v -9.202293 5.641586 -0.087976
v -9.050775 5.552134 -0.087976
v -9.212660 -0.003744 -0.087976
v -9.036708 -0.003744 -0.087976
v -9.364774 5.737510 0.338575
v -8.888294 5.456212 0.338575
v -8.888294 5.456212 -0.338575
v -9.364774 5.737510 -0.338575
v -8.327131 7.495135 0.338575
v -7.850652 7.213839 0.338575
v -7.850652 7.213839 -0.338575
v -8.327131 7.495135 -0.338575
v -8.845357 5.528940 0.287086
v -8.845357 5.528940 -0.287086
v -7.893588 7.141111 -0.287086
v -7.893588 7.141111 0.287086
vt 0.375000 0.000000
vt 0.625000 0.000000
vt 0.375000 0.250000
vt 0.625000 0.250000
vt 0.375000 0.500000
vt 0.625000 0.500000
vt 0.375000 0.750000
vt 0.625000 0.750000
vt 0.375000 1.000000
vt 0.625000 1.000000
vt 0.875000 0.000000
vt 0.875000 0.250000
vt 0.125000 0.000000
vt 0.125000 0.250000
vt 0.375000 0.250000
vt 0.625000 0.250000
vt 0.625000 0.500000
vt 0.375000 0.500000
vt 0.375000 0.250000
vt 0.625000 0.250000
vt 0.625000 0.500000
vt 0.375000 0.500000
vt 0.625000 0.250000
vt 0.625000 0.500000
vt 0.625000 0.500000
vt 0.625000 0.250000
vn 0.000000 0.000000 1.000000
vn 0.000000 0.000000 1.000000
vn 0.000000 0.000000 1.000000
vn 0.000000 0.000000 1.000000
vn 0.508380 0.861133 0.000000
vn 0.508380 0.861133 0.000000
vn 0.508380 0.861133 0.000000
vn 0.508380 0.861133 0.000000
vn 0.000000 0.000000 -1.000000
vn 0.000000 0.000000 -1.000000
vn 0.000000 0.000000 -1.000000
vn 0.000000 0.000000 -1.000000
vn 0.000000 -1.000000 0.000000
vn 0.000000 -1.000000 0.000000
vn 0.000000 -1.000000 0.000000
vn 0.000000 -1.000000 0.000000
vn 0.999997 0.002532 0.000000
vn 0.999997 0.002532 0.000000
vn 0.999997 0.002532 0.000000
vn 0.999997 0.002532 0.000000
vn -0.999998 0.001836 0.000000
vn -0.999998 0.001836 0.000000
vn -0.999998 0.001836 0.000000
vn -0.999998 0.001836 0.000000
vn -0.508383 -0.861131 0.000003
vn -0.508383 -0.861131 0.000003
vn -0.508383 -0.861131 0.000003
vn -0.508383 -0.861131 0.000003
vn -0.508378 -0.861134 0.000000
vn -0.508378 -0.861134 0.000000
vn -0.508378 -0.861134 0.000000
vn -0.508378 -0.861134 0.000000
vn -0.508383 -0.861131 -0.000003
vn -0.508383 -0.861131 -0.000003
vn -0.508383 -0.861131 -0.000003
vn -0.508383 -0.861131 -0.000003
vn -0.508385 -0.861130 0.000000
vn -0.508385 -0.861130 0.000000
vn -0.508385 -0.861130 0.000000
vn -0.508385 -0.861130 0.000000
vn 0.000000 0.000000 1.000000
vn 0.000000 0.000000 1.000000
vn 0.000000 0.000000 1.000000
vn 0.000000 0.000000 1.000000
vn 0.861132 -0.508382 0.000000
vn 0.861132 -0.508382 0.000000
vn 0.861132 -0.508382 0.000000
vn 0.861132 -0.508382 0.000000
vn 0.000000 0.000000 -1.000000
vn 0.000000 0.000000 -1.000000
vn 0.000000 0.000000 -1.000000
vn 0.000000 0.000000 -1.000000
vn -0.861131 0.508383 0.000000
vn -0.861131 0.508383 0.000000
vn -0.861131 0.508383 0.000000
vn -0.861131 0.508383 0.000000
vn 0.861128 -0.508388 0.000000
vn 0.861128 -0.508388 0.000000
vn 0.861128 -0.508388 0.000000
vn 0.861128 -0.508388 0.000000
vn 0.861131 -0.508382 -0.000000
vn 0.861131 -0.508382 -0.000000
vn 0.861131 -0.508382 -0.000000
vn 0.861131 -0.508382 -0.000000
vn 0.861129 -0.508387 0.000000
vn 0.861129 -0.508387 0.000000
vn 0.861129 -0.508387 0.000000
vn 0.861129 -0.508387 0.000000
vn 0.861131 -0.508382 0.000000
vn 0.861131 -0.508382 0.000000
vn 0.861131 -0.508382 0.000000
vn 0.861131 -0.508382 0.000000
s off
g streetLamp
usemtl phong1SG
f 1/1/1 2/2/2 4/4/3 3/3/4
f 13/19/5 14/20/6 15/21/7 16/22/8
f 5/5/9 6/6/10 8/8/11 7/7/12
f 7/7/13 8/8/14 2/10/15 1/9/16
f 2/2/17 8/11/18 6/12/19 4/4/20
f 7/13/21 1/1/22 3/3/23 5/14/24
f 3/3/25 4/4/26 10/16/27 9/15/28
f 4/4/29 6/6/30 11/17/31 10/16/32
f 6/6/33 5/5/34 12/18/35 11/17/36
f 5/5/37 3/3/38 9/15/39 12/18/40
f 9/15/41 10/16/42 14/20/43 13/19/44
usemtl blinn1SG
f 17/23/45 18/24/46 19/25/47 20/26/48
usemtl phong1SG
f 11/17/49 12/18/50 16/22/51 15/21/52
f 12/18/53 9/15/54 13/19/55 16/22/56
f 10/16/57 11/17/58 18/24/59 17/23/60
f 11/17/61 15/21/62 19/25/63 18/24/64
f 15/21/65 14/20/66 20/26/67 19/25/68
f 14/20/69 10/16/70 17/23/71 20/26/72
