# This file uses centimeters as units for non-parametric coordinates.

mtllib trashcan.mtl
g default
v -6.048512 0.115667 1.533207
v -5.048512 0.115667 1.533207
v -6.048512 1.569274 1.533207
v -5.048512 1.569274 1.533207
v -6.048512 1.569274 0.533207
v -5.048512 1.569274 0.533207
v -6.048512 0.115667 0.533207
v -5.048512 0.115667 0.533207
v -5.948512 1.779455 1.533207
v -5.148512 1.779455 1.533207
v -5.148512 1.779455 0.533207
v -5.948512 1.779455 0.533207
v -5.820735 1.920343 1.533207
v -5.276290 1.920343 1.533207
v -5.276290 1.920343 0.533207
v -5.820735 1.920343 0.533207
v -5.642278 1.980707 1.533207
v -5.454747 1.980707 1.533207
v -5.454747 1.980707 0.533207
v -5.642278 1.980707 0.533207
v -5.059226 1.591792 1.223924
v -5.059226 1.591792 0.842491
v -5.137799 1.756937 0.842491
v -5.137799 1.756937 1.223924
v -5.215553 1.465525 1.223924
v -5.215553 1.465525 0.842491
v -5.294126 1.630670 0.842491
v -5.294126 1.630670 1.223924
vt 0.375000 0.000000
vt 0.625000 0.000000
vt 0.375000 0.250000
vt 0.625000 0.250000
vt 0.375000 0.500000
vt 0.625000 0.500000
vt 0.375000 0.750000
vt 0.625000 0.750000
vt 0.375000 1.000000
vt 0.625000 1.000000
vt 0.875000 0.000000
vt 0.875000 0.250000
vt 0.125000 0.000000
vt 0.125000 0.250000
vt 0.375000 0.250000
vt 0.625000 0.250000
vt 0.625000 0.500000
vt 0.375000 0.500000
vt 0.375000 0.250000
vt 0.625000 0.250000
vt 0.625000 0.500000
vt 0.375000 0.500000
vt 0.375000 0.250000
vt 0.625000 0.250000
vt 0.625000 0.500000
vt 0.375000 0.500000
vt 0.625000 0.250000
vt 0.625000 0.500000
vt 0.625000 0.500000
vt 0.625000 0.250000
vt 0.625000 0.250000
vt 0.625000 0.500000
vt 0.625000 0.500000
vt 0.625000 0.250000
vn 0.000000 0.000000 1.000000
vn 0.000000 0.000000 1.000000
vn 0.000000 0.000000 1.000000
vn 0.000000 0.000000 1.000000
vn 0.000000 1.000000 0.000000
vn 0.000000 1.000000 0.000000
vn 0.000000 1.000000 0.000000
vn 0.000000 1.000000 0.000000
vn 0.000000 0.000000 -1.000000
vn 0.000000 0.000000 -1.000000
vn 0.000000 0.000000 -1.000000
vn 0.000000 0.000000 -1.000000
vn 0.000000 -1.000000 0.000000
vn 0.000000 -1.000000 0.000000
vn 0.000000 -1.000000 0.000000
vn 0.000000 -1.000000 0.000000
vn 1.000000 0.000000 0.000000
vn 1.000000 0.000000 0.000000
vn 1.000000 0.000000 0.000000
vn 1.000000 0.000000 0.000000
vn -1.000000 0.000000 0.000000
vn -1.000000 0.000000 0.000000
vn -0.998199 0.059996 0.000000
vn -0.998199 0.059996 0.000000
vn 0.000000 0.000000 1.000000
vn 0.000000 0.000000 1.000000
vn 0.903004 0.429632 0.000000
vn 0.903004 0.429632 0.000000
vn 0.903004 0.429632 0.000000
vn 0.903004 0.429632 0.000000
vn 0.000000 0.000000 -1.000000
vn 0.000000 0.000000 -1.000000
vn -0.838899 0.544287 0.000000
vn -0.838899 0.544287 0.000000
vn 0.000000 0.000000 1.000000
vn 0.000000 0.000000 1.000000
vn 0.740731 0.671802 0.000000
vn 0.740731 0.671802 0.000000
vn 0.549202 0.835690 0.000000
vn 0.549202 0.835690 0.000000
vn 0.000000 0.000000 -1.000000
vn 0.000000 0.000000 -1.000000
vn -0.549202 0.835690 0.000000
vn -0.549202 0.835690 0.000000
vn 0.000000 0.000000 1.000000
vn 0.000000 0.000000 1.000000
vn 0.320422 0.947275 0.000000
vn 0.320422 0.947275 0.000000
vn 0.000000 0.000000 -1.000000
vn 0.000000 0.000000 -1.000000
vn -0.320422 0.947275 0.000000
vn -0.320422 0.947275 0.000000
vn 0.903004 0.429633 0.000000
vn 0.903004 0.429633 0.000000
vn 0.903004 0.429633 0.000000
vn 0.903004 0.429633 0.000000
vn 0.903004 0.429632 0.000000
vn 0.903004 0.429632 0.000000
vn 0.903004 0.429632 0.000000
vn 0.903004 0.429632 0.000000
vn 0.903005 0.429631 0.000000
vn 0.903005 0.429631 0.000000
vn 0.903004 0.429631 0.000000
vn 0.903004 0.429631 0.000000
vn 0.903004 0.429632 -0.000000
vn 0.903004 0.429632 -0.000000
vn 0.903004 0.429632 -0.000000
vn 0.903004 0.429632 -0.000000
vn -0.628345 0.777935 0.000000
vn -0.628345 0.777935 0.000000
vn -0.628345 0.777935 0.000000
vn -0.628345 0.777935 0.000000
vn 0.000000 0.000000 1.000000
vn 0.000000 0.000000 1.000000
vn 0.000000 0.000000 1.000000
vn 0.000000 0.000000 1.000000
vn 0.628344 -0.777935 0.000000
vn 0.628344 -0.777935 0.000000
vn 0.628344 -0.777935 0.000000
vn 0.628344 -0.777935 0.000000
vn 0.000000 0.000000 -1.000000
vn 0.000000 0.000000 -1.000000
vn 0.000000 0.000000 -1.000000
vn 0.000000 0.000000 -1.000000
s 1
g pCube1
usemtl phong1SG
f 1/1/1 2/2/2 4/4/3 3/3/4
s off
f 17/23/5 18/24/6 19/25/7 20/26/8
s 2
f 5/5/9 6/6/10 8/8/11 7/7/12
s off
f 7/7/13 8/8/14 2/10/15 1/9/16
f 2/2/17 8/11/18 6/12/19 4/4/20
s 3
f 7/13/21 1/1/22 3/3/23 5/14/24
s 1
f 3/3/4 4/4/3 10/16/25 9/15/26
s off
f 25/31/27 26/32/28 27/33/29 28/34/30
s 2
f 6/6/10 5/5/9 12/18/31 11/17/32
s 3
f 5/5/24 3/3/23 9/15/33 12/18/34
s 1
f 9/15/26 10/16/25 14/20/35 13/19/36
s 4
f 10/16/37 11/17/38 15/21/39 14/20/40
s 2
f 11/17/32 12/18/31 16/22/41 15/21/42
s 3
f 12/18/34 9/15/33 13/19/43 16/22/44
s 1
f 13/19/36 14/20/35 18/24/45 17/23/46
s 4
f 14/20/40 15/21/39 19/25/47 18/24/48
s 2
f 15/21/42 16/22/41 20/26/49 19/25/50
s 3
f 16/22/44 13/19/43 17/23/51 20/26/52
s off
f 4/4/53 6/6/54 22/28/55 21/27/56
f 6/6/57 11/17/58 23/29/59 22/28/60
f 11/17/61 10/16/62 24/30/63 23/29/64
f 10/16/65 4/4/66 21/27/67 24/30/68
f 21/27/69 22/28/70 26/32/71 25/31/72
f 22/28/73 23/29/74 27/33/75 26/32/76
f 23/29/77 24/30/78 28/34/79 27/33/80
f 24/30/81 21/27/82 25/31/83 28/34/84
